<svg viewBox="0 0 100 100" version="1.1" xmlns="http://www.w3.org/2000/svg">
    <g transform="matrix(0.210084,0,0,0.210084,0,0)">
        <g transform="matrix(0.158932,0,0,0.158932,-0.397329,-0.397329)">
            <circle cx="1500" cy="1500" r="1497.5" fill="#FFF7EC"/>
        </g>
        <g transform="matrix(1.608252,0,0,1.608252,-97.445143,-34.708848)">
            <path d="M292.041,263.177L231.422,263.177L231.422,260.64C233.988,260.64 235.766,260.261 236.758,259.503C237.749,258.745 238.245,257.666 238.245,256.266C238.245,255.158 238.041,253.876 237.632,252.418L203.403,159.585L162.815,159.585C158.092,171.89 155.73,181.92 155.73,189.676C155.73,193.466 156.255,196.499 157.304,198.773C159.287,203.147 162.64,205.334 167.364,205.334L167.364,207.87L125.114,207.87L125.114,205.334C131.412,205.334 137.244,201.631 142.609,194.225C147.974,186.818 153.047,176.38 157.829,162.909L177.248,109.2C178.24,106.518 179.129,103.806 179.916,101.065C180.704,98.324 181.126,95.496 181.185,92.58C181.185,90.014 180.776,87.667 179.96,85.539C179.144,83.41 177.715,81.704 175.674,80.421C173.633,79.138 170.775,78.497 167.101,78.497L167.101,75.96L227.896,75.96L227.896,78.497C225.33,78.497 223.551,78.876 222.56,79.634C221.568,80.392 221.073,81.471 221.073,82.871C221.073,83.979 221.277,85.247 221.685,86.676C222.093,88.104 222.618,89.664 223.26,91.356L278.483,247.432C279.299,250.172 280.174,252.52 281.107,254.473C282.04,256.427 283.323,257.943 284.956,259.022C286.589,260.101 288.95,260.64 292.041,260.64L292.041,263.177ZM202.091,155.561L183.809,101.153L164.215,155.561L202.091,155.561Z" style="fill:rgb(195,30,23);fill-rule:nonzero;"/>
        </g>
    </g>
</svg>
