<?xml version="1.0" encoding="UTF-8" standalone="no"?>
<!DOCTYPE svg PUBLIC "-//W3C//DTD SVG 1.1//EN" "http://www.w3.org/Graphics/SVG/1.1/DTD/svg11.dtd">
<svg width="100%" height="100%" viewBox="0 0 1135 359" version="1.1" xmlns="http://www.w3.org/2000/svg" xmlns:xlink="http://www.w3.org/1999/xlink" xml:space="preserve" xmlns:serif="http://www.serif.com/" style="fill-rule:evenodd;clip-rule:evenodd;stroke-linejoin:round;stroke-miterlimit:2;">
    <g transform="matrix(1,0,0,1,-0.901,0)">
        <g>
            <path d="M607.729,0.901C530,1.505 520.05,1.616 435.039,0.901C516.613,0.261 517.307,0.199 607.729,0.901Z" style="fill:rgb(190,32,38);"/>
            <path d="M607.729,357.431C530,358.034 520.05,358.145 435.039,357.431C516.613,356.79 517.307,356.728 607.729,357.431Z" style="fill:rgb(190,32,38);"/>
            <path d="M650.909,19.666C534.309,20.27 519.383,20.381 391.859,19.666C514.227,19.026 515.269,18.964 650.909,19.666Z" style="fill:rgb(190,32,38);"/>
            <path d="M650.909,338.666C534.309,339.27 519.383,339.381 391.859,338.666C514.227,338.026 515.269,337.964 650.909,338.666Z" style="fill:rgb(190,32,38);"/>
            <path d="M715.634,38.431C540.768,39.034 518.383,39.146 327.134,38.431C510.651,37.791 512.213,37.728 715.634,38.431Z" style="fill:rgb(190,32,38);"/>
            <path d="M715.634,319.901C540.768,320.505 518.383,320.616 327.134,319.901C510.651,319.261 512.213,319.199 715.634,319.901Z" style="fill:rgb(190,32,38);"/>
            <path d="M812.759,57.195C578.348,57.735 537.359,57.961 230.009,57.195C471.811,56.633 479.822,56.429 812.759,57.195Z" style="fill:rgb(190,32,38);"/>
            <g transform="matrix(1.43706,0,0,1,-227.877,18.8059)">
                <path d="M812.759,57.195C578.348,57.735 537.359,57.961 230.009,57.195C471.811,56.633 479.822,56.429 812.759,57.195Z" style="fill:rgb(190,32,38);"/>
            </g>
            <g transform="matrix(1.43706,0,0,1,-227.877,225.506)">
                <path d="M812.759,57.195C578.348,57.735 537.359,57.961 230.009,57.195C471.811,56.633 479.822,56.429 812.759,57.195Z" style="fill:rgb(190,32,38);"/>
            </g>
            <g transform="matrix(1.7863,0,0,1,-409.965,37.6059)">
                <path d="M812.759,57.195C578.348,57.735 537.359,57.961 230.009,57.195C471.811,56.633 479.822,56.429 812.759,57.195Z" style="fill:rgb(190,32,38);"/>
            </g>
            <g transform="matrix(1.7863,0,0,1,-409.965,56.3972)">
                <path d="M812.759,57.195C578.348,57.735 537.359,57.961 230.009,57.195C471.811,56.633 479.822,56.429 812.759,57.195Z" style="fill:rgb(190,32,38);"/>
            </g>
            <g transform="matrix(1.7863,0,0,1,-409.965,75.1884)">
                <path d="M812.759,57.195C578.348,57.735 537.359,57.961 230.009,57.195C471.811,56.633 479.822,56.429 812.759,57.195Z" style="fill:rgb(190,32,38);"/>
            </g>
            <g transform="matrix(1.7863,0,0,1,-409.965,93.9797)">
                <path d="M812.759,57.195C578.348,57.735 537.359,57.961 230.009,57.195C471.811,56.633 479.822,56.429 812.759,57.195Z" style="fill:rgb(190,32,38);"/>
            </g>
            <g transform="matrix(1.7863,0,0,1,-409.965,112.771)">
                <path d="M812.759,57.195C578.348,57.735 537.359,57.961 230.009,57.195C471.811,56.633 479.822,56.429 812.759,57.195Z" style="fill:rgb(190,32,38);"/>
            </g>
            <g transform="matrix(1.7863,0,0,1,-409.965,131.562)">
                <path d="M812.759,57.195C578.348,57.735 537.359,57.961 230.009,57.195C471.811,56.633 479.822,56.429 812.759,57.195Z" style="fill:rgb(190,32,38);"/>
            </g>
            <g transform="matrix(1.7863,0,0,1,-409.965,131.606)">
                <path d="M812.759,57.195C578.348,57.735 537.359,57.961 230.009,57.195C471.811,56.633 479.822,56.429 812.759,57.195Z" style="fill:rgb(190,32,38);"/>
            </g>
            <g transform="matrix(1.78674,0,0,1,-410.316,150.382)">
                <path d="M812.759,57.195C578.348,57.735 537.359,57.961 230.009,57.195C471.811,56.633 479.822,56.429 812.759,57.195Z" style="fill:rgb(190,32,38);"/>
            </g>
            <g transform="matrix(1.7863,0,0,1,-409.965,169.158)">
                <path d="M812.759,57.195C578.348,57.735 537.359,57.961 230.009,57.195C471.811,56.633 479.822,56.429 812.759,57.195Z" style="fill:rgb(190,32,38);"/>
            </g>
            <g transform="matrix(1.78674,0,0,1,-411.186,187.934)">
                <path d="M812.759,57.195C578.348,57.735 537.359,57.961 230.009,57.195C471.811,56.633 479.822,56.429 812.759,57.195Z" style="fill:rgb(190,32,38);"/>
            </g>
            <g transform="matrix(1.7863,0,0,1,-409.965,187.934)">
                <path d="M812.759,57.195C578.348,57.735 537.359,57.961 230.009,57.195C471.811,56.633 479.822,56.429 812.759,57.195Z" style="fill:rgb(190,32,38);"/>
            </g>
            <g transform="matrix(1.7863,0,0,1,-409.965,206.706)">
                <path d="M812.759,57.195C578.348,57.735 537.359,57.961 230.009,57.195C471.811,56.633 479.822,56.429 812.759,57.195Z" style="fill:rgb(190,32,38);"/>
            </g>
            <path d="M812.759,301.136C578.348,301.676 537.359,301.902 230.009,301.136C471.811,300.574 479.822,300.37 812.759,301.136Z" style="fill:rgb(190,32,38);"/>
        </g>
        <g>
            <path d="M111.556,207.87L0.901,207.87L0.901,205.334C4.109,205.334 6.398,204.765 7.768,203.628C9.138,202.491 9.969,200.858 10.261,198.729C10.553,196.601 10.698,194.02 10.698,190.988L10.698,92.843C10.698,89.81 10.553,87.23 10.261,85.101C9.969,82.973 9.138,81.34 7.768,80.203C6.398,79.065 4.109,78.497 0.901,78.497L0.901,75.96L63.008,75.96L63.008,78.497C59.8,78.497 57.511,79.036 56.141,80.115C54.771,81.194 53.94,82.769 53.648,84.839C53.356,86.909 53.211,89.431 53.211,92.405L53.211,193.175C53.211,195.333 53.298,197.286 53.473,199.036C53.648,200.785 54.1,202.17 54.829,203.191C55.558,204.211 56.739,204.721 58.372,204.721L77.091,204.721C84.789,204.721 90.97,203.468 95.635,200.96C100.301,198.452 103.698,194.837 105.826,190.113C107.955,185.39 109.019,179.762 109.019,173.231L111.556,173.231L111.556,207.87Z" style="fill:rgb(195,30,23);fill-rule:nonzero;"/>
            <path d="M126.514,99.666L125.376,99.666L124.064,95.292C123.131,92.493 122.344,89.898 121.703,87.507C121.061,85.116 120.74,83.046 120.74,81.296C120.74,79.605 121.119,78.293 121.878,77.36C122.636,76.427 123.977,75.96 125.901,75.96C127.826,75.96 129.182,76.441 129.969,77.403C130.756,78.366 131.15,79.663 131.15,81.296C131.15,83.104 130.814,85.218 130.144,87.638C129.473,90.058 128.7,92.668 127.826,95.467L126.514,99.666Z" style="fill:rgb(195,30,23);fill-rule:nonzero;"/>
            <path d="M125.945,113.49C125.945,113.49 117.453,93.163 117.453,84.452C117.453,79.765 121.258,75.96 125.945,75.96C130.632,75.96 134.437,79.765 134.437,84.452C134.437,93.163 125.945,113.49 125.945,113.49Z" style="fill:rgb(195,30,23);"/>
            <path d="M292.041,263.177L231.422,263.177L231.422,260.64C233.988,260.64 235.766,260.261 236.758,259.503C237.749,258.745 238.245,257.666 238.245,256.266C238.245,255.158 238.041,253.876 237.632,252.418L203.403,159.585L162.815,159.585C158.092,171.89 155.73,181.92 155.73,189.676C155.73,193.466 156.255,196.499 157.304,198.773C159.287,203.147 162.64,205.334 167.364,205.334L167.364,207.87L125.114,207.87L125.114,205.334C131.412,205.334 137.244,201.631 142.609,194.225C147.974,186.818 153.047,176.38 157.829,162.909L177.248,109.2C178.24,106.518 179.129,103.806 179.916,101.065C180.704,98.324 181.126,95.496 181.185,92.58C181.185,90.014 180.776,87.667 179.96,85.539C179.144,83.41 177.715,81.704 175.674,80.421C173.633,79.138 170.775,78.497 167.101,78.497L167.101,75.96L227.896,75.96L227.896,78.497C225.33,78.497 223.551,78.876 222.56,79.634C221.568,80.392 221.073,81.471 221.073,82.871C221.073,83.979 221.277,85.247 221.685,86.676C222.093,88.104 222.618,89.664 223.26,91.356L278.483,247.432C279.299,250.172 280.174,252.52 281.107,254.473C282.04,256.427 283.323,257.943 284.956,259.022C286.589,260.101 288.95,260.64 292.041,260.64L292.041,263.177ZM202.091,155.561L183.809,101.153L164.215,155.561L202.091,155.561Z" style="fill:rgb(195,30,23);fill-rule:nonzero;"/>
            <path d="M319.83,207.87L295.95,207.87C286.386,207.87 279.738,204.751 276.006,198.511C272.974,193.554 271.458,186.264 271.458,176.642L271.72,119.697L264.81,119.697L264.81,117.16L271.72,117.16L271.807,96.429L273.907,96.429C275.715,100.628 278.922,104.272 283.529,107.363C288.136,110.454 293.151,112.859 298.574,114.58C303.998,116.3 308.605,117.16 312.395,117.16L320.005,117.16L320.005,119.697L312.395,119.697L312.395,190.463C312.395,193.321 312.512,195.872 312.745,198.117C312.978,200.362 313.605,202.126 314.626,203.409C315.646,204.692 317.381,205.334 319.83,205.334L319.83,207.87Z" style="fill:rgb(195,30,23);fill-rule:nonzero;"/>
            <path d="M350.842,303.958C345.71,303.958 341.482,303.068 338.158,301.29C334.834,299.511 332.37,297.164 330.766,294.248C329.163,291.332 328.361,288.183 328.361,284.801C328.361,279.728 330.11,275.514 333.609,272.161C337.108,268.808 341.394,267.131 346.468,267.131C348.626,267.131 350.346,267.714 351.629,268.881C352.912,270.047 354.136,271.418 355.303,272.992C356.119,274.158 357.038,275.281 358.058,276.36C359.079,277.439 360.289,278.328 361.688,279.028C363.088,279.728 364.808,280.077 366.849,280.077C369.765,280.077 372.477,279.144 374.984,277.278C377.492,275.412 379.766,272.948 381.807,269.887C383.848,266.825 399.052,211.603 400.569,207.87L363.742,207.87L340.912,135.005C339.629,130.981 338.608,128.124 337.85,126.432C336.859,124.216 335.503,122.54 333.783,121.403C332.062,120.266 329.569,119.697 326.304,119.697L326.304,117.16L386.835,117.16L386.835,119.697C384.036,119.697 382.097,120.134 381.018,121.009C379.939,121.884 379.4,123.138 379.4,124.77C379.4,125.937 379.604,127.336 380.012,128.969L402.668,201.572C405.642,191.25 408.908,180.229 412.465,168.507C418.996,146.989 422.845,133.955 424.012,129.407C424.362,127.774 424.536,126.345 424.536,125.12C424.536,123.371 423.982,122.03 422.874,121.097C421.766,120.164 419.755,119.697 416.839,119.697L416.839,117.16L440.194,117.16L440.194,119.697C436.987,119.697 434.552,120.251 432.89,121.359C431.228,122.467 429.945,124.085 429.041,126.214C428.137,128.342 427.277,130.923 426.461,133.955L405.992,203.234C402.202,216.53 384.198,279.086 378.833,287.25C371.485,298.389 362.155,303.958 350.842,303.958Z" style="fill:rgb(195,30,23);fill-rule:nonzero;"/>
            <path d="M457.689,301.136L455.59,301.136L455.59,133.605C455.59,130.631 455.444,128.109 455.152,126.039C454.861,123.969 454.03,122.394 452.659,121.315C451.289,120.236 449,119.697 445.793,119.697L445.793,117.16L496.527,117.16L496.527,134.83C499.268,128.415 503.496,123.604 509.211,120.397C514.926,117.189 521.107,115.586 527.755,115.586C533.237,115.586 538.398,116.665 543.238,118.822C548.079,120.98 552.029,124.362 555.091,128.969C558.153,133.576 559.683,139.524 559.683,146.814L559.683,176.642C559.683,186.264 558.196,193.554 555.222,198.511C551.49,204.751 544.842,207.87 535.278,207.87L496.527,207.87L496.527,267.459C496.527,269.967 496.892,271.891 497.621,273.232C498.35,274.574 500.201,275.244 503.175,275.244L503.175,277.781C499.735,277.781 494.778,278.874 488.305,281.061C481.832,283.248 475.665,286.106 469.804,289.634C463.943,293.162 459.905,296.996 457.689,301.136ZM507.811,205.334C510.786,205.1 513.06,204.24 514.634,202.753C516.209,201.266 517.288,199.342 517.871,196.98C518.454,194.618 518.746,192.038 518.746,189.239L518.746,139.641C518.746,136.142 518.367,133.372 517.609,131.331C516.85,129.29 515.844,127.832 514.591,126.957C513.337,126.083 511.981,125.645 510.523,125.645C507.374,125.82 504.764,127.176 502.694,129.713C500.624,132.249 499.079,135.282 498.058,138.81C497.038,142.338 496.527,145.56 496.527,148.476L496.527,205.334L507.811,205.334Z" style="fill:rgb(195,30,23);fill-rule:nonzero;"/>
            <path d="M628.788,208.361L568.256,208.361L568.256,205.824C571.463,205.824 573.752,205.256 575.122,204.119C576.493,202.981 577.324,201.349 577.615,199.22C577.907,197.092 578.053,194.511 578.053,191.479L578.053,134.043C578.053,131.01 577.907,128.43 577.615,126.301C577.324,124.173 576.493,122.54 575.122,121.403C573.752,120.266 571.463,119.697 568.256,119.697L568.256,117.16L628.788,117.16L628.788,119.697C625.58,119.697 623.291,120.236 621.921,121.315C620.55,122.394 619.719,123.969 619.428,126.039C619.136,128.109 618.991,130.631 618.991,133.605L618.991,191.916C618.991,194.89 619.136,197.412 619.428,199.483C619.719,201.553 620.55,203.127 621.921,204.206C623.291,205.285 625.58,205.824 628.788,205.824L628.788,208.361ZM598.522,113.399C593.332,113.399 589.016,112.495 585.576,110.687C582.135,108.879 579.554,106.547 577.834,103.689C576.114,100.832 575.254,97.858 575.254,94.767C575.254,91.618 576.114,88.6 577.834,85.713C579.554,82.827 582.15,80.494 585.619,78.716C589.089,76.937 593.39,76.018 598.522,75.96C603.653,75.96 607.94,76.864 611.38,78.672C614.821,80.48 617.401,82.827 619.122,85.713C620.842,88.6 621.702,91.589 621.702,94.68C621.702,97.77 620.857,100.744 619.165,103.602C617.474,106.459 614.908,108.792 611.468,110.6C608.027,112.408 603.712,113.341 598.522,113.399Z" style="fill:rgb(195,30,23);fill-rule:nonzero;"/>
            <path d="M704.54,301.136L702.44,301.136L702.44,207.87L663.777,207.87C654.155,207.87 647.507,204.751 643.833,198.511C640.801,193.496 639.284,186.206 639.284,176.642L639.284,146.814C639.284,139.524 640.815,133.576 643.877,128.969C646.938,124.362 650.904,120.98 655.773,118.822C660.643,116.665 665.789,115.586 671.212,115.586C677.86,115.586 684.042,117.189 689.757,120.397C695.472,123.604 699.7,128.415 702.44,134.83L702.44,117.16L753.175,117.16L753.175,119.697C749.968,119.697 747.679,120.236 746.308,121.315C744.938,122.394 744.107,123.983 743.815,126.083C743.524,127.832 743.378,129.931 743.378,132.381L743.378,267.634C743.378,270.083 743.743,271.964 744.472,273.276C745.2,274.588 747.052,275.244 750.026,275.244L750.026,277.781C746.585,277.781 741.614,278.874 735.112,281.061C728.61,283.248 722.428,286.106 716.567,289.634C710.707,293.162 706.697,296.996 704.54,301.136ZM702.44,205.334L702.44,148.476C702.44,145.56 701.93,142.338 700.91,138.81C699.889,135.282 698.344,132.249 696.274,129.713C694.203,127.176 691.623,125.82 688.532,125.645C687.016,125.645 685.631,126.083 684.377,126.957C683.123,127.832 682.117,129.29 681.359,131.331C680.601,133.372 680.222,136.142 680.222,139.641L680.222,189.239C680.222,192.038 680.514,194.618 681.097,196.98C681.68,199.342 682.759,201.266 684.333,202.753C685.908,204.24 688.182,205.1 691.156,205.334L702.44,205.334Z" style="fill:rgb(195,30,23);fill-rule:nonzero;"/>
            <path d="M803.21,209.445C797.787,209.445 792.64,208.366 787.771,206.208C782.902,204.051 778.936,200.668 775.875,196.062C772.813,191.455 771.282,185.506 771.282,178.217L771.282,133.605C771.282,130.631 771.136,128.109 770.845,126.039C770.553,123.969 769.722,122.394 768.352,121.315C766.981,120.236 764.693,119.697 761.485,119.697L761.485,117.16L822.017,117.16L822.017,119.697C818.81,119.697 816.521,120.266 815.15,121.403C813.78,122.54 812.949,124.173 812.657,126.301C812.366,128.43 812.22,131.01 812.22,134.043L812.22,185.39C812.22,188.889 812.599,191.659 813.357,193.7C814.115,195.741 815.121,197.199 816.375,198.073C817.629,198.948 819.014,199.386 820.53,199.386C823.621,199.211 826.201,197.869 828.271,195.362C830.342,192.854 831.887,189.822 832.907,186.264C833.928,182.707 834.438,179.471 834.438,176.555L834.438,134.043C834.438,131.01 834.292,128.43 834.001,126.301C833.709,124.173 832.878,122.54 831.508,121.403C830.137,120.266 827.849,119.697 824.641,119.697L824.641,117.16L885.173,117.16L885.173,119.697C881.966,119.697 879.677,120.266 878.306,121.403C876.936,122.54 876.105,124.173 875.813,126.301C875.522,128.43 875.376,131.01 875.376,134.043L875.376,190.988C875.376,194.02 875.522,196.601 875.813,198.729C876.105,200.858 876.936,202.491 878.306,203.628C879.677,204.765 881.966,205.334 885.173,205.334L885.173,207.87L834.438,207.87L834.438,190.201C831.697,196.616 827.469,201.427 821.755,204.634C816.04,207.841 809.858,209.445 803.21,209.445Z" style="fill:rgb(195,30,23);fill-rule:nonzero;"/>
            <path d="M943.518,179.354C942.41,176.672 941.856,173.931 941.856,171.132C941.856,168.041 942.337,164.892 943.299,161.684C944.261,158.477 945.355,155.24 946.58,151.975C947.921,148.418 949.102,144.802 950.122,141.128C951.143,137.454 951.682,133.751 951.74,130.019C951.74,128.094 951.522,126.301 951.084,124.639C950.647,122.977 949.86,121.607 948.723,120.528C947.585,119.449 945.938,118.91 943.78,118.91C940.748,118.91 938.153,120.091 935.995,122.452C933.838,124.814 932.19,127.934 931.053,131.812C929.916,135.69 929.347,139.933 929.347,144.54C929.347,150.721 930.484,156.961 932.759,163.259C935.033,169.557 938.619,174.922 943.518,179.354ZM945.267,209.445C936.17,209.445 928.181,208.104 921.3,205.421C914.418,202.739 908.689,199.138 904.111,194.618C899.533,190.099 896.078,185.025 893.745,179.398C891.413,173.77 890.246,167.982 890.246,162.034C890.246,156.203 891.384,150.517 893.658,144.977C895.932,139.437 899.373,134.465 903.98,130.063C908.587,125.66 914.345,122.146 921.256,119.522C928.166,116.898 936.258,115.586 945.53,115.586C954.86,115.586 963.054,117.073 970.11,120.047C979.266,123.954 983.843,130.136 983.843,138.591C983.843,141.799 982.852,144.7 980.869,147.295C978.886,149.89 976.393,152.31 973.39,154.555C970.387,156.8 967.252,158.944 963.987,160.985C961.071,162.792 958.345,164.615 955.808,166.452C953.271,168.289 951.216,170.198 949.641,172.181C948.067,174.164 947.279,176.263 947.279,178.479C947.279,179.996 947.688,181.22 948.504,182.153C949.67,183.494 951.478,184.544 953.927,185.302C957.718,186.585 961.654,187.227 965.736,187.227C969.119,187.227 972.486,186.906 975.839,186.264C979.193,185.623 982.385,184.34 985.418,182.416C985.418,186.614 984.208,190.39 981.788,193.743C979.368,197.097 976.204,199.94 972.297,202.272C968.39,204.605 964.074,206.383 959.351,207.608C954.627,208.833 949.933,209.445 945.267,209.445Z" style="fill:rgb(195,30,23);fill-rule:nonzero;"/>
        </g>
        <path d="M867.556,227.746C867.556,229.679 866.324,232.011 863.86,234.74C861.396,237.469 858.354,240.066 854.734,242.53C851.114,244.993 847.522,246.946 843.959,248.386C844.755,248.121 845.57,247.988 846.404,247.988C849.209,247.988 851.066,248.5 851.976,249.523C852.204,249.751 852.317,250.016 852.317,250.319C852.317,250.622 851.806,251.362 850.782,252.537C840.13,264.856 830.351,277.081 821.443,289.211C825.082,286.368 828.304,283.658 831.109,281.08C832.663,279.678 834.558,278.976 836.795,278.976C838.425,278.976 839.429,279.185 839.808,279.602C840.187,280.019 840.377,280.369 840.377,280.654C840.377,280.938 840.13,281.27 839.638,281.649C833.307,287.183 822.978,295.257 808.649,305.871C806.185,308.638 799.969,315.234 789.999,325.658C788.218,327.477 786.247,328.387 784.086,328.387C779.879,328.387 777.775,327.212 777.775,324.862C777.775,323.838 778.59,322.208 780.22,319.972C782.57,316.522 788.313,311.31 797.448,304.336C799.457,302.099 802.925,298.309 807.853,292.964C817.178,282.805 822.807,276.285 824.741,273.404C819.585,278.294 815.681,281.744 813.028,283.753C810.374,285.762 807.92,287.505 805.664,288.984C803.409,290.462 801.333,291.656 799.438,292.566C790.265,296.963 783.726,296.982 779.822,292.623C777.851,290.462 776.865,287.287 776.865,283.099C776.865,278.91 778.021,274.295 780.333,269.253C782.646,264.212 785.735,259.237 789.601,254.328C793.468,249.419 798.055,244.633 803.361,239.971C808.668,235.308 814.184,231.215 819.907,227.689C825.631,224.164 831.658,221.33 837.989,219.189C844.319,217.047 850.289,215.976 855.899,215.976C857.833,215.976 859.652,216.298 861.358,216.943C863.064,217.587 864.277,218.27 864.997,218.99C866.703,220.696 867.556,223.614 867.556,227.746ZM834.691,239.63L834.407,240.767C834.407,241.411 834.843,241.733 835.714,241.733C838.027,241.733 841.192,240.615 845.21,238.379C849.228,236.142 852.469,233.849 854.933,231.499C857.397,229.149 858.629,227.196 858.629,225.642C858.629,224.316 857.454,223.652 855.103,223.652C850.934,223.652 846.243,224.676 841.031,226.723C835.819,228.77 830.73,231.423 825.764,234.683C820.798,237.943 815.908,241.686 811.094,245.913C806.28,250.139 802.082,254.366 798.5,258.592C794.918,262.819 792.027,266.96 789.829,271.016C787.63,275.072 786.531,278.54 786.531,281.421C786.531,282.558 786.863,283.563 787.526,284.435C788.189,285.307 789.166,285.743 790.454,285.743C794.434,285.743 800.85,282.691 809.701,276.588C818.552,270.485 828.721,262.165 840.206,251.627C840.358,251.475 840.623,251.191 841.002,250.774C841.836,249.751 842.689,249.011 843.561,248.557C840.453,249.808 837.913,250.433 835.942,250.433C833.971,250.433 832.341,249.997 831.052,249.125C829.763,248.253 829.119,247.069 829.119,245.571C829.119,244.074 829.782,242.662 831.109,241.335C832.435,240.009 833.364,239.345 833.895,239.345C834.426,239.345 834.691,239.44 834.691,239.63Z" style="fill:rgb(195,30,23);fill-rule:nonzero;"/>
        <path d="M886.376,255.095C887.513,255.095 888.679,255.607 889.873,256.631C891.067,257.654 891.664,259.218 891.664,261.322C891.664,263.425 890.925,266.155 889.446,269.509C887.968,272.864 885.94,276.276 883.363,279.744C880.785,283.212 877.951,286.472 874.862,289.524C871.773,292.575 868.437,295.077 864.855,297.029C861.273,298.981 858.022,299.957 855.103,299.957C852.185,299.957 849.844,299.038 848.081,297.2C846.319,295.361 845.437,292.803 845.437,289.524C845.437,286.245 846.243,282.615 847.854,278.635C849.465,274.655 851.54,271.139 854.08,268.088C856.62,265.036 859.368,262.298 862.325,259.872C868.503,254.906 873.924,252.423 878.586,252.423C880.671,252.423 882.244,252.935 883.306,253.958C883.685,254.299 883.874,254.603 883.874,254.868L883.874,255.209C884.405,255.133 885.239,255.095 886.376,255.095ZM880.633,262.658L880.235,262.658C878.909,262.658 878.245,261.691 878.245,259.758C875.478,260.668 872.578,262.26 869.546,264.534C866.513,266.808 863.803,269.5 861.415,272.608C856.563,278.825 854.099,284.075 854.023,288.358C854.023,290.481 854.8,291.542 856.354,291.542C857.908,291.542 860.221,290.519 863.291,288.472C866.362,286.425 869.404,283.506 872.417,279.716C875.431,275.925 877.686,272.637 879.183,269.85C880.681,267.064 881.429,265.169 881.429,264.164C881.429,263.16 881.164,262.658 880.633,262.658Z" style="fill:rgb(195,30,23);fill-rule:nonzero;"/>
        <path d="M938.573,280.568C939.293,280.568 939.729,281.118 939.881,282.217C940.032,283.317 940.108,284.454 940.108,285.629C940.108,286.804 939.994,287.619 939.767,288.074C938.668,290.197 936.261,292.784 932.546,295.835C928.831,298.887 925.306,300.412 921.97,300.412C919.923,300.412 918.028,299.796 916.284,298.564C914.54,297.332 913.669,295.181 913.669,292.111C913.669,289.04 914.484,286.027 916.114,283.07C906.713,294.859 899.34,300.753 893.995,300.753C891.872,300.753 890.157,299.995 888.849,298.479C887.542,296.963 886.888,295.399 886.888,293.788C886.888,292.177 887.115,290.509 887.57,288.785C888.025,287.06 888.508,285.515 889.02,284.151C889.532,282.786 890.29,281.099 891.294,279.09C892.299,277.081 893.048,275.622 893.54,274.712C894.033,273.802 894.82,272.428 895.9,270.59C896.98,268.751 898.402,266.278 900.164,263.169C901.927,260.061 903.386,257.758 904.543,256.261C905.699,254.764 906.826,254.006 907.926,253.987C909.025,253.968 909.992,254.413 910.826,255.323C911.66,256.233 912.076,256.972 912.076,257.54C912.076,258.109 910.807,260.668 908.267,265.216C900.761,278.787 897.009,286.69 897.009,288.927C897.009,289.495 897.217,289.78 897.634,289.78C899.454,289.78 903.984,285.837 911.224,277.953C918.464,270.068 922.652,265.017 923.79,262.8C924.927,260.582 926.035,258.715 927.116,257.199C928.196,255.683 929.002,254.754 929.532,254.413C931.162,253.352 933.266,252.783 935.844,252.707C936.261,252.707 936.583,252.726 936.81,252.764C937.038,252.802 937.303,253.124 937.606,253.731C937.91,254.337 938.061,254.811 938.061,255.152C937.72,256.214 936.213,259.038 933.541,263.624C930.869,268.211 929.381,270.808 929.077,271.414C924.605,280.663 922.368,286.69 922.368,289.495C922.368,291.087 922.975,291.883 924.188,291.883C926.386,291.58 929.04,289.818 932.148,286.596C933.285,285.42 934.413,284.226 935.531,283.013C936.649,281.8 937.341,281.09 937.606,280.881C937.872,280.673 938.194,280.568 938.573,280.568Z" style="fill:rgb(195,30,23);fill-rule:nonzero;"/>
        <path d="M955.062,267.434C964.008,257.275 971.627,252.196 977.92,252.196C979.474,252.196 980.753,252.66 981.758,253.589C982.762,254.517 983.264,255.721 983.264,257.199C983.264,258.678 982.212,261.151 980.109,264.619C978.005,268.088 976.062,271.016 974.281,273.404C973.333,274.617 972.262,275.224 971.068,275.224C969.874,275.224 968.945,274.788 968.282,273.916C967.619,273.044 967.287,272.021 967.287,270.845C967.287,268.23 968.689,265.273 971.495,261.975L971.381,261.862C970.13,261.975 967.031,264.439 962.084,269.253C957.138,274.068 952.93,278.379 949.462,282.189C945.993,285.998 942.231,290.633 938.175,296.091C937,297.721 936.005,298.536 935.19,298.536C934.375,298.536 933.295,298.28 931.949,297.768C930.603,297.257 929.788,296.887 929.504,296.66C929.22,296.432 929.077,296.053 929.077,295.522C929.077,294.992 929.229,294.376 929.532,293.675C929.836,292.973 930.395,291.978 931.21,290.689C932.025,289.401 933.257,287.316 934.906,284.435C936.554,281.554 939.123,277.195 942.61,271.357C946.097,265.52 948.182,261.994 948.864,260.781C950.305,258.28 951.48,256.46 952.39,255.323C954.096,253.162 956.976,252.082 961.032,252.082C961.942,252.082 962.397,252.65 962.397,253.788C962.397,255.569 960.748,258.924 957.45,263.852L955.062,267.434Z" style="fill:rgb(195,30,23);fill-rule:nonzero;"/>
        <path d="M977.124,298.763L974.337,298.65L973.314,298.65C972.935,298.536 972.527,298.309 972.092,297.967C971.656,297.626 971.324,297.38 971.096,297.228C970.869,297.077 970.755,296.802 970.755,296.404C970.755,296.006 970.907,295.314 971.21,294.328C978.602,278.067 985.747,265.065 992.646,255.323C993.404,254.261 994.627,253.456 996.314,252.906C998,252.357 999.64,252.082 1001.23,252.082C1002.18,252.082 1002.65,252.821 1002.65,254.299C1002.65,254.716 1002.5,255.275 1002.2,255.977C1001.89,256.678 1001.14,257.825 999.924,259.417C998.711,261.009 997.271,262.828 995.603,264.875C993.935,266.922 992.987,268.097 992.76,268.401C997.953,263.018 1002.64,259.009 1006.83,256.375C1011.02,253.74 1014.05,252.423 1015.93,252.423C1017.81,252.423 1019.25,252.963 1020.25,254.044C1021.26,255.124 1021.76,256.28 1021.76,257.512C1021.76,258.744 1021.67,259.767 1021.5,260.582C1021.33,261.397 1021.02,262.25 1020.56,263.141C1020.11,264.032 1019.72,264.79 1019.4,265.415C1019.08,266.041 1018.54,266.856 1017.78,267.86C1017.02,268.865 1016.5,269.557 1016.21,269.936C1015.93,270.315 1015.34,271.035 1014.45,272.096C1013.56,273.158 1013.08,273.745 1013,273.859C1014.06,272.798 1015.54,271.225 1017.44,269.14C1019.33,267.055 1020.93,265.311 1022.24,263.909C1023.55,262.506 1025.19,260.924 1027.16,259.161C1029.13,257.398 1030.97,255.967 1032.67,254.868C1036.77,252.29 1040.92,251.002 1045.13,251.002C1046.57,251.002 1047.78,251.456 1048.77,252.366C1049.75,253.276 1050.25,254.366 1050.25,255.636C1050.25,256.905 1048.71,259.938 1045.64,264.733C1042.57,269.528 1039.51,274.342 1036.46,279.175C1033.4,284.008 1031.88,287.05 1031.88,288.301C1031.88,290.045 1032.2,291.078 1032.85,291.4C1033.49,291.722 1034.27,291.846 1035.18,291.77C1036.09,291.694 1037.37,291.106 1039.02,290.007C1040.66,288.908 1042.13,287.771 1043.42,286.596C1045.51,284.7 1047.44,282.862 1049.22,281.08C1049.6,280.739 1050.02,280.568 1050.47,280.568C1051.19,280.568 1051.63,281.118 1051.78,282.217C1051.93,283.317 1052.01,284.454 1052.01,285.629C1052.01,286.804 1051.89,287.619 1051.67,288.074C1050.57,290.197 1048.14,292.793 1044.39,295.864C1040.63,298.934 1037.03,300.469 1033.59,300.469C1033.17,300.469 1032.87,300.45 1032.67,300.412C1028.77,300.033 1026.07,298.962 1024.57,297.2C1023.08,295.437 1022.33,293.343 1022.33,290.917C1022.33,288.491 1023.15,285.553 1024.8,282.104C1026.45,278.654 1028.26,275.527 1030.23,272.722C1032.2,269.917 1034.01,267.387 1035.66,265.131C1037.31,262.876 1038.13,261.653 1038.13,261.464C1038.13,261.274 1037.98,261.179 1037.68,261.179C1036.5,261.179 1033.89,263.075 1029.83,266.865C1022.89,273.347 1016.91,279.602 1011.87,285.629C1010.54,287.221 1007.39,291.258 1002.43,297.74C1001.86,298.498 1000.96,298.877 999.725,298.877C998.493,298.877 997.214,298.64 995.887,298.166C994.56,297.693 993.897,297.077 993.897,296.318C993.897,295.939 996.911,290.623 1002.94,280.369C1008.97,270.116 1011.98,264.525 1011.98,263.596C1011.98,262.667 1011.42,262.203 1010.3,262.203C1009.18,262.203 1006.88,263.871 1003.39,267.206C993.802,276.38 986.373,285.496 981.104,294.556C980.763,295.087 980.099,295.92 979.114,297.058C978.128,298.195 977.465,298.763 977.124,298.763Z" style="fill:rgb(195,30,23);fill-rule:nonzero;"/>
        <path d="M1087.09,255.891C1087.09,258.393 1086.08,260.592 1084.05,262.487C1082.02,264.382 1079.72,265.33 1077.14,265.33C1076.31,265.33 1075.76,265.131 1075.49,264.733C1075.22,264.335 1075.09,263.814 1075.09,263.169C1075.09,262.525 1075.17,261.9 1075.32,261.293C1073.95,261.748 1072.44,262.449 1070.77,263.397C1069.1,264.345 1067.06,265.747 1064.63,267.604C1062.2,269.462 1060.99,270.845 1060.99,271.755C1060.99,272.058 1061.44,272.21 1062.33,272.21C1063.22,272.21 1064.59,271.897 1066.45,271.272C1068.31,270.646 1069.61,270.334 1070.34,270.334C1071.08,270.334 1071.57,270.372 1071.79,270.447C1072.29,270.713 1072.82,271.291 1073.39,272.182C1073.95,273.072 1074.24,273.774 1074.24,274.285C1074.24,274.797 1073.75,275.47 1072.76,276.304C1071.78,277.138 1070.66,277.773 1069.41,278.209C1068.15,278.645 1067.32,278.976 1066.9,279.204C1058.91,283.677 1054.91,286.747 1054.91,288.415C1054.91,291.372 1057.43,292.85 1062.47,292.85C1065.69,292.85 1068.93,291.827 1072.19,289.78C1074.96,288.036 1077.45,286.264 1079.67,284.463C1081.89,282.663 1083.29,281.554 1083.88,281.137C1084.46,280.72 1084.91,280.512 1085.21,280.512C1086.2,280.512 1086.69,281.611 1086.69,283.809C1086.69,286.008 1086.56,287.458 1086.29,288.159C1086.03,288.86 1085.27,289.723 1084.02,290.746C1075.91,297.342 1068.23,300.64 1060.99,300.64C1057.12,300.64 1054.04,300.109 1051.72,299.048C1047.48,297.114 1045.36,294.158 1045.36,290.178C1045.36,284.947 1048.97,280.985 1056.21,278.294C1054.78,277.65 1053.85,276.825 1053.43,275.821C1053.01,274.816 1052.8,273.205 1052.8,270.988C1052.8,268.77 1053.84,266.42 1055.9,263.937C1057.97,261.454 1060.5,259.417 1063.49,257.825C1070.16,254.224 1076.12,252.423 1081.35,252.423C1082.6,252.423 1083.87,252.726 1085.16,253.333C1086.44,253.939 1087.09,254.792 1087.09,255.891Z" style="fill:rgb(195,30,23);fill-rule:nonzero;"/>
        <path d="M1124.05,225.187L1126.38,225.756C1126.72,225.756 1127.02,225.927 1127.29,226.268C1127.55,226.609 1127.69,226.931 1127.69,227.234C1127.69,227.538 1127.29,228.353 1126.49,229.679C1125.7,231.006 1124.76,232.513 1123.68,234.2C1122.6,235.886 1122.02,236.806 1121.94,236.957C1124.9,236.73 1127,236.616 1128.23,236.616C1129.46,236.616 1130.3,236.701 1130.76,236.872C1131.21,237.043 1131.73,237.516 1132.32,238.293C1132.91,239.071 1133.45,239.658 1133.94,240.056C1134.43,240.454 1134.68,241.051 1134.68,241.847C1134.68,242.643 1134.2,243.316 1133.23,243.866C1132.26,244.415 1131.23,244.747 1130.13,244.861C1121.34,245.733 1116.49,246.187 1115.58,246.225C1112.51,250.926 1108.21,258.251 1102.7,268.202C1097.18,278.152 1094.25,284.378 1093.91,286.88C1093.76,288.017 1093.68,288.946 1093.68,289.666C1093.68,291.144 1094.46,291.883 1096.02,291.883C1097.57,291.883 1099.3,291.286 1101.19,290.092C1103.09,288.898 1104.83,287.6 1106.42,286.197C1110.67,282.407 1112.94,280.512 1113.25,280.512C1114.23,280.512 1114.72,282.217 1114.72,285.629C1114.72,287.486 1113.87,289.154 1112.16,290.633C1108.34,293.93 1105.11,296.413 1102.5,298.081C1099.88,299.749 1097.27,300.583 1094.65,300.583C1094.08,300.583 1093.55,300.526 1093.06,300.412C1090.03,299.844 1087.8,298.735 1086.38,297.086C1084.96,295.437 1084.26,293.21 1084.28,290.405C1084.29,287.6 1085.13,284.198 1086.78,280.199C1088.43,276.2 1090.5,271.945 1093,267.434C1097.1,260.08 1101.19,253.181 1105.29,246.737L1103.12,247.021C1098.73,247.514 1096.17,247.761 1095.45,247.761L1094.94,247.761C1093.84,247.761 1092.78,247.543 1091.75,247.107C1090.73,246.671 1090.22,246.131 1090.22,245.486C1090.22,244.842 1090.49,244.216 1091.04,243.61C1091.59,243.003 1091.92,242.53 1092.04,242.188C1092.3,241.354 1093.3,240.426 1095.02,239.402C1096.75,238.379 1098.04,237.839 1098.92,237.782C1099.79,237.725 1100.63,237.678 1101.45,237.64C1102.26,237.602 1103.17,237.564 1104.18,237.526C1105.18,237.488 1105.95,237.45 1106.48,237.412L1111.6,237.185C1114.78,232.409 1116.97,229.338 1118.16,227.974C1119.36,226.609 1120.05,225.86 1120.24,225.728C1120.43,225.595 1120.81,225.529 1121.38,225.529L1124.05,225.187Z" style="fill:rgb(195,30,23);fill-rule:nonzero;"/>
        <path d="M1018.69,209.445C1013.5,209.445 1009.18,208.541 1005.74,206.733C1002.3,204.926 999.719,202.593 997.998,199.735C996.278,196.878 995.418,193.904 995.418,190.813C995.418,187.664 996.278,184.646 997.998,181.76C999.719,178.873 1002.31,176.54 1005.78,174.762C1009.25,172.983 1013.55,172.065 1018.69,172.006C1023.82,172.006 1028.1,172.91 1031.54,174.718C1034.99,176.526 1037.57,178.873 1039.29,181.76C1041.01,184.646 1041.87,187.635 1041.87,190.726C1041.87,193.816 1041.02,196.79 1039.33,199.648C1037.64,202.505 1035.07,204.838 1031.63,206.646C1028.19,208.454 1023.88,209.387 1018.69,209.445Z" style="fill:rgb(195,30,23);fill-rule:nonzero;"/>
        <rect x="0.901" y="0" width="1134.1" height="359" style="fill:none;"/>
    </g>
</svg>
