<svg fill="currentColor" viewBox="0 0 512 512" xmlns="http://www.w3.org/2000/svg">
    <g transform="matrix(1.178971,0,0,1.178971,-2.202184,-2.184993)">
        <path d="M159.105,435.955C126.952,435.961 102.125,435.982 97.501,436.033C51.412,436.543 2.418,400.364 2.036,340.502C1.986,332.627 2.13,111.745 1.967,97.501C1.542,60.351 28.426,2.177 100.5,2.034C120.262,1.995 340.349,1.559 347.523,2.201C370.207,4.229 387.13,11.526 402.918,25.022C415.812,35.635 430.943,55.845 434.837,82.446C437.303,99.296 435.33,276.857 436.033,340.499C436.542,386.512 400.468,435.573 340.502,435.964C337.248,435.985 296.409,435.972 249.06,435.962L249.06,294.799L316.228,294.799L330.192,218.992L249.151,218.992L249.151,192.047C249.151,152.006 264.852,136.602 305.555,136.602C318.262,136.602 328.433,136.991 334.26,137.562L334.26,68.953C323.108,65.845 295.957,62.737 280.256,62.737C197.295,62.737 159.105,101.909 159.105,186.333L159.105,218.992L107.935,218.992L107.935,294.799L159.105,294.799L159.105,435.955Z" style="fill-opacity:1;"/>
    </g>
</svg>