<svg fill="currentColor" viewBox="0 0 512 512" xmlns="http://www.w3.org/2000/svg">
    <g transform="matrix(1.178971,0,0,1.178971,-2.202184,-2.184993)">
        <path d="M402.918,25.022C415.812,35.635 430.943,55.845 434.837,82.446C437.303,99.296 435.33,276.857 436.033,340.499C436.542,386.512 400.468,435.573 340.502,435.964C332.758,436.015 112.256,435.87 97.501,436.033C51.412,436.543 2.418,400.364 2.036,340.502C1.986,332.627 2.13,111.745 1.967,97.501C1.542,60.351 28.426,2.177 100.5,2.034C120.262,1.995 340.349,1.559 347.523,2.201C370.207,4.229 387.13,11.526 402.918,25.022ZM284.386,62.075L153.627,62.075C103.28,62.075 62.09,103.266 62.09,153.612L62.09,284.371C62.09,334.718 103.28,375.908 153.627,375.908L284.386,375.908C334.732,375.908 375.923,334.718 375.923,284.371L375.923,153.612C375.923,103.266 334.732,62.075 284.386,62.075ZM284.386,88.226C320.215,88.333 349.665,117.783 349.772,153.612L349.772,284.371C349.665,320.201 320.215,349.651 284.386,349.758L153.627,349.758C117.797,349.651 88.347,320.201 88.24,284.371L88.24,153.612C88.347,117.783 117.797,88.333 153.627,88.226L284.386,88.226ZM304,153.612L304.043,153.612C314.78,153.612 323.615,144.777 323.615,134.04L323.615,133.998C323.615,123.237 314.761,114.383 304,114.383C293.24,114.383 284.386,123.237 284.386,133.998C284.386,144.758 293.24,153.612 304,153.612ZM219.006,140.534C175.965,140.534 140.548,175.951 140.548,218.992C140.548,262.033 175.965,297.45 219.006,297.45C262.047,297.45 297.465,262.033 297.465,218.992C297.465,175.951 262.047,140.534 219.006,140.534ZM219.006,166.684C247.702,166.684 271.314,190.297 271.314,218.992C271.314,247.687 247.702,271.3 219.006,271.3C190.311,271.3 166.699,247.687 166.699,218.992C166.729,190.308 190.323,166.715 219.006,166.684Z" style="fill-opacity:1;"/>
    </g>
</svg>