<svg viewBox="0 0 196 62" fill="currentColor" xmlns="http://www.w3.org/2000/svg">
<path d="M147.084 37.1147C147.416 37.1148 147.728 37.17 148.021 37.2808C148.315 37.3914 148.524 37.5086 148.647 37.6323C148.941 37.9255 149.087 38.4272 149.087 39.1372C149.087 39.4693 148.875 39.8705 148.452 40.3394C148.029 40.8083 147.506 41.2548 146.884 41.6782C146.262 42.1014 145.644 42.4366 145.032 42.6841C145.169 42.6386 145.309 42.6157 145.452 42.6157C145.934 42.6157 146.253 42.7038 146.409 42.8794C146.448 42.9185 146.468 42.9642 146.468 43.0161C146.468 43.0682 146.38 43.196 146.204 43.3979C144.374 45.5148 142.693 47.6153 141.162 49.6997C141.787 49.2111 142.341 48.7453 142.823 48.3022C143.09 48.0613 143.416 47.9409 143.801 47.9409C144.081 47.9409 144.253 47.9768 144.318 48.0483C144.383 48.1198 144.416 48.1801 144.416 48.229C144.416 48.2778 144.374 48.3357 144.289 48.4009C143.201 49.3519 141.426 50.7392 138.964 52.563C138.54 53.0385 137.472 54.1722 135.759 55.9634C135.453 56.2758 135.114 56.432 134.743 56.4321C134.02 56.4321 133.658 56.2303 133.658 55.8267C133.658 55.6507 133.798 55.3701 134.078 54.9858C134.482 54.393 135.469 53.4977 137.039 52.2993C137.384 51.9149 137.98 51.2636 138.827 50.3452C140.429 48.5996 141.397 47.479 141.729 46.9839C140.844 47.8241 140.173 48.417 139.717 48.7622C139.261 49.1074 138.839 49.4065 138.451 49.6606C138.064 49.9146 137.707 50.1205 137.381 50.2769C135.805 51.0323 134.681 51.0356 134.01 50.2866C133.671 49.9153 133.502 49.3694 133.502 48.6499C133.502 47.93 133.7 47.1365 134.098 46.27C134.495 45.4038 135.026 44.5491 135.69 43.7056C136.355 42.862 137.144 42.0389 138.056 41.2378C138.968 40.4366 139.915 39.7333 140.898 39.1274C141.882 38.5217 142.918 38.0344 144.006 37.6665C145.094 37.2984 146.12 37.1147 147.084 37.1147ZM165.15 43.3198C165.306 43.32 165.385 43.4174 165.385 43.6128C165.385 43.9189 165.101 44.4956 164.534 45.3423L164.124 45.9575C165.661 44.2119 166.97 43.3395 168.052 43.3394C168.319 43.3394 168.539 43.419 168.712 43.5786C168.884 43.738 168.971 43.9449 168.971 44.1987C168.971 44.4529 168.79 44.8782 168.429 45.4741C168.067 46.0703 167.733 46.5735 167.427 46.9839C167.264 47.1921 167.08 47.2963 166.875 47.2964C166.67 47.2964 166.509 47.2216 166.396 47.0718C166.282 46.9219 166.225 46.7455 166.225 46.5435C166.225 46.0942 166.466 45.5857 166.948 45.019L166.929 45.0005C166.714 45.0199 166.181 45.4429 165.331 46.27C164.481 47.0975 163.758 47.8389 163.162 48.4937C162.566 49.1482 161.919 49.9444 161.222 50.8823C161.02 51.1623 160.849 51.3022 160.709 51.3022C160.569 51.3022 160.383 51.2583 160.152 51.1704C160.066 51.1376 159.993 51.1066 159.932 51.0806C159.411 51.4422 158.914 51.6244 158.438 51.6245C158.086 51.6245 157.76 51.5188 157.46 51.3071C157.16 51.0954 157.011 50.7253 157.011 50.1978C157.011 49.6703 157.151 49.1529 157.431 48.645C155.815 50.6706 154.548 51.6831 153.63 51.6831C153.265 51.6831 152.97 51.553 152.745 51.2925C152.521 51.0322 152.408 50.7634 152.408 50.4868C152.408 50.21 152.447 49.9227 152.525 49.6265C152.604 49.3302 152.686 49.0648 152.774 48.8306C152.862 48.596 152.993 48.3057 153.166 47.9604C153.339 47.6154 153.467 47.3648 153.552 47.2085C153.636 47.0521 153.771 46.8154 153.957 46.4995C154.143 46.1835 154.388 45.7592 154.69 45.2251C154.993 44.6911 155.244 44.2949 155.442 44.0376C155.641 43.7805 155.835 43.6504 156.023 43.647C156.212 43.6437 156.379 43.7201 156.522 43.8765C156.666 44.0327 156.737 44.1598 156.737 44.2573C156.737 44.3552 156.518 44.7952 156.082 45.5767C154.792 47.9082 154.148 49.2663 154.147 49.6509C154.147 49.7484 154.183 49.7972 154.255 49.7974C154.568 49.7974 155.347 49.12 156.591 47.7651C157.835 46.4106 158.554 45.5428 158.75 45.1616C158.945 44.7805 159.136 44.4592 159.321 44.1987C159.507 43.9386 159.645 43.779 159.736 43.7202C160.016 43.5379 160.378 43.4403 160.821 43.4272C160.893 43.4272 160.948 43.4305 160.987 43.437C161.026 43.4435 161.072 43.4987 161.124 43.603C161.176 43.7071 161.202 43.7886 161.202 43.8472C161.143 44.0299 160.885 44.5156 160.426 45.3032C159.967 46.0909 159.711 46.5367 159.658 46.6411C158.89 48.2304 158.506 49.2665 158.506 49.7485C158.506 50.0221 158.61 50.1587 158.818 50.1587C159.196 50.1066 159.652 49.8042 160.187 49.2505C160.382 49.0484 160.575 48.8427 160.768 48.6343C160.8 48.5988 160.831 48.5661 160.859 48.5356C161.136 48.0601 161.51 47.4248 161.984 46.6313C162.583 45.6285 162.941 45.0224 163.059 44.814C163.306 44.3842 163.509 44.0718 163.665 43.8765C163.958 43.5051 164.453 43.3198 165.15 43.3198ZM193.564 38.7954C193.623 38.7954 193.674 38.8248 193.721 38.8833C193.765 38.9419 193.789 38.9972 193.789 39.0493C193.789 39.1016 193.72 39.2414 193.583 39.4692C193.447 39.6973 193.286 39.9567 193.101 40.2466C192.915 40.5358 192.816 40.6938 192.802 40.7202C193.31 40.6813 193.67 40.6616 193.882 40.6616C194.093 40.6616 194.238 40.6762 194.317 40.7056C194.395 40.735 194.484 40.8164 194.585 40.9497C194.686 41.0833 194.779 41.1841 194.863 41.2524C194.947 41.3208 194.99 41.4235 194.99 41.5601C194.99 41.6968 194.908 41.8132 194.741 41.9077C194.575 42.0019 194.398 42.059 194.209 42.0786C192.698 42.2285 191.864 42.3065 191.708 42.313C191.18 43.1208 190.442 44.3796 189.495 46.0894C188.547 47.7992 188.043 48.8694 187.984 49.2993C187.959 49.4946 187.945 49.6541 187.945 49.7778C187.945 50.0317 188.079 50.1586 188.347 50.1587C188.613 50.1587 188.911 50.0562 189.235 49.8511C189.562 49.6459 189.862 49.4232 190.135 49.1821C190.863 48.5324 191.253 48.2061 191.308 48.2046C191.476 48.2046 191.561 48.4981 191.561 49.0845C191.56 49.4034 191.415 49.6898 191.121 49.9438C190.465 50.5103 189.909 50.9375 189.461 51.2241C189.011 51.5108 188.562 51.6538 188.111 51.6538C188.014 51.6538 187.923 51.644 187.839 51.6245C187.318 51.5269 186.934 51.3366 186.69 51.0532C186.45 50.7734 186.33 50.3968 186.33 49.9233C186.315 49.936 186.301 49.9504 186.285 49.9634C184.891 51.0969 183.571 51.6636 182.327 51.6636C181.662 51.6635 181.133 51.5724 180.734 51.3901C180.282 51.1835 179.969 50.9093 179.798 50.5669C179.697 50.656 179.59 50.7489 179.475 50.8433C178.829 51.3707 178.21 51.6342 177.619 51.6343C177.547 51.6343 177.495 51.631 177.461 51.6245C176.791 51.5594 176.327 51.3754 176.069 51.0728C175.813 50.7698 175.684 50.4096 175.684 49.9927C175.684 49.5759 175.825 49.0714 176.108 48.479C176.392 47.8861 176.703 47.3487 177.042 46.8667C177.38 46.3847 177.691 45.9497 177.975 45.562C178.257 45.1762 178.398 44.966 178.399 44.9321C178.399 44.8996 178.374 44.8824 178.322 44.8823C178.119 44.8823 177.67 45.2086 176.973 45.8599C175.78 46.9737 174.753 48.0488 173.887 49.0845C173.658 49.358 173.117 50.0518 172.265 51.1655C172.167 51.2957 172.012 51.3607 171.8 51.3608C171.588 51.3608 171.368 51.3202 171.14 51.2388C170.912 51.1575 170.798 51.0517 170.798 50.9214C170.798 50.8563 171.316 49.9423 172.352 48.1802C173.387 46.4193 173.905 45.4588 173.905 45.2983C173.905 45.1387 173.809 45.0591 173.616 45.0591C173.424 45.0595 173.028 45.3458 172.429 45.9185C170.781 47.4949 169.505 49.0618 168.6 50.6187C168.541 50.7099 168.427 50.8529 168.258 51.0483C168.088 51.2437 167.974 51.3413 167.915 51.3413L167.437 51.3218H167.261C167.196 51.3022 167.126 51.2633 167.051 51.2046C166.976 51.1461 166.919 51.1038 166.88 51.0776C166.841 51.0517 166.821 51.0044 166.821 50.936C166.821 50.8677 166.847 50.7489 166.899 50.5796C168.17 47.7852 169.397 45.5506 170.583 43.8765C170.713 43.6941 170.923 43.5559 171.213 43.4614C171.502 43.3671 171.784 43.3199 172.058 43.3198C172.221 43.3198 172.302 43.4467 172.302 43.7007C172.302 43.7723 172.276 43.8683 172.225 43.9888C172.171 44.1092 172.043 44.3062 171.834 44.5796C171.626 44.8532 171.377 45.1663 171.091 45.5181C170.805 45.8692 170.642 46.071 170.603 46.1235C171.495 45.1986 172.301 44.5097 173.021 44.0571C173.74 43.6044 174.261 43.3785 174.584 43.3784C174.907 43.3784 175.154 43.471 175.326 43.6567C175.5 43.8423 175.586 44.0408 175.586 44.2524C175.586 44.464 175.57 44.6398 175.541 44.7798C175.512 44.9198 175.459 45.0671 175.38 45.2202C175.303 45.3732 175.236 45.5035 175.181 45.6108C175.126 45.7184 175.033 45.8583 174.902 46.0308C174.772 46.2034 174.682 46.3221 174.632 46.3872C174.584 46.4523 174.483 46.5762 174.33 46.7583C174.177 46.9408 174.095 47.0424 174.081 47.062C174.263 46.8797 174.517 46.6087 174.844 46.2505C175.168 45.8923 175.444 45.5929 175.669 45.3521C175.894 45.111 176.175 44.8385 176.514 44.5356C176.852 44.2327 177.169 43.9872 177.461 43.7983C178.165 43.3554 178.878 43.1344 179.602 43.1343C179.849 43.1343 180.057 43.2123 180.228 43.3687C180.396 43.525 180.481 43.712 180.481 43.9302C180.481 44.1483 180.217 44.6697 179.689 45.4937C179.162 46.3175 178.636 47.1447 178.112 47.9751C177.587 48.8055 177.325 49.3284 177.325 49.5435C177.325 49.8432 177.38 50.0203 177.492 50.0757C177.602 50.131 177.736 50.1532 177.893 50.1401C178.049 50.127 178.268 50.0251 178.552 49.8364C178.834 49.6476 179.087 49.4524 179.309 49.2505C179.668 48.9247 179.999 48.6084 180.305 48.3022C180.37 48.2437 180.442 48.2144 180.52 48.2144C180.563 48.2144 180.6 48.2266 180.631 48.2495C180.877 48.0917 181.168 47.9493 181.506 47.8237C181.26 47.7131 181.1 47.5714 181.028 47.3989C180.956 47.2262 180.92 46.9489 180.92 46.5679C180.92 46.1869 181.099 45.7834 181.453 45.3569C181.809 44.9303 182.243 44.5797 182.757 44.3062C183.903 43.6874 184.927 43.3785 185.826 43.3784C186.041 43.3784 186.26 43.4304 186.481 43.5347C186.701 43.6388 186.812 43.7854 186.812 43.9741C186.812 44.404 186.639 44.7814 186.29 45.1069C185.941 45.4326 185.546 45.5962 185.103 45.5962C184.96 45.5961 184.866 45.5619 184.819 45.4937C184.773 45.4253 184.751 45.335 184.751 45.2241C184.751 45.1136 184.764 45.006 184.79 44.9019C184.555 44.98 184.295 45.1012 184.008 45.2642C183.721 45.4271 183.37 45.6679 182.953 45.9868C182.536 46.3058 182.327 46.5433 182.327 46.6997C182.327 46.7517 182.405 46.7778 182.558 46.7778C182.711 46.7778 182.946 46.7241 183.266 46.6167C183.585 46.5091 183.809 46.4556 183.935 46.4556C184.062 46.4556 184.146 46.4622 184.184 46.4751C184.27 46.5208 184.36 46.6208 184.458 46.7739C184.554 46.9268 184.604 47.0475 184.604 47.1353C184.604 47.2232 184.52 47.3389 184.351 47.4819C184.182 47.6253 183.989 47.7342 183.774 47.8091C183.558 47.884 183.415 47.9408 183.343 47.98C181.97 48.7485 181.283 49.2764 181.283 49.563C181.283 50.0711 181.716 50.3247 182.582 50.3247C183.135 50.3247 183.692 50.1491 184.252 49.7974C184.728 49.4977 185.157 49.1938 185.538 48.8843C185.919 48.5751 186.159 48.3837 186.261 48.312C186.36 48.2406 186.438 48.2048 186.489 48.2046C186.574 48.2046 186.638 48.2524 186.681 48.3472C186.705 48.2827 186.731 48.2172 186.759 48.1509C187.042 47.4637 187.399 46.7327 187.828 45.9575C188.533 44.6938 189.236 43.5083 189.94 42.4009L189.567 42.4497C188.813 42.5344 188.373 42.5767 188.249 42.5767H188.161C187.972 42.5766 187.79 42.5392 187.613 42.4644C187.438 42.3895 187.351 42.2968 187.351 42.186C187.351 42.0754 187.397 41.9678 187.491 41.8638C187.586 41.7595 187.642 41.6774 187.663 41.6187C187.708 41.4755 187.88 41.3159 188.175 41.1401C188.472 40.9643 188.694 40.8716 188.846 40.8618C188.995 40.852 189.139 40.8439 189.28 40.8374C189.419 40.8309 189.576 40.8244 189.749 40.8179C189.921 40.8113 190.053 40.8049 190.145 40.7983L191.024 40.7593C191.571 39.9387 191.947 39.4107 192.151 39.1763C192.357 38.9424 192.476 38.8138 192.509 38.7905C192.541 38.7677 192.607 38.7564 192.705 38.7563L193.164 38.6978L193.564 38.7954ZM150.981 43.3784C151.34 43.3784 151.61 43.4663 151.793 43.6421C151.858 43.7006 151.891 43.7528 151.891 43.7983V43.8569C151.982 43.8439 152.125 43.8374 152.32 43.8374C152.516 43.8374 152.717 43.9251 152.922 44.1011C153.127 44.2768 153.229 44.5455 153.229 44.9067C153.229 45.2681 153.103 45.7377 152.849 46.314C152.595 46.8905 152.246 47.4768 151.803 48.0728C151.36 48.6687 150.873 49.2289 150.342 49.7534C149.811 50.2777 149.238 50.708 148.622 51.0435C148.007 51.3788 147.448 51.5464 146.946 51.5464C146.445 51.5464 146.042 51.3886 145.739 51.0728C145.437 50.7567 145.285 50.3168 145.285 49.7534C145.285 49.19 145.424 48.5662 145.701 47.8823C145.978 47.1985 146.334 46.5941 146.771 46.0698C147.207 45.5453 147.679 45.0746 148.188 44.6577C149.249 43.8046 150.18 43.3786 150.981 43.3784ZM150.923 44.6382C150.447 44.7946 149.95 45.0688 149.429 45.4595C148.908 45.8502 148.442 46.3122 148.031 46.8462C147.197 47.9146 146.774 48.8172 146.761 49.5532C146.761 49.9179 146.894 50.1 147.161 50.1001C147.428 50.1001 147.826 49.9245 148.354 49.5728C148.881 49.221 149.404 48.7192 149.922 48.0679C150.44 47.4165 150.828 46.8514 151.085 46.3726C151.342 45.8943 151.471 45.5688 151.471 45.396C151.471 45.2237 151.425 45.1374 151.334 45.1372H151.266C151.038 45.1372 150.923 44.9704 150.923 44.6382ZM146.947 38.4341C146.231 38.4341 145.424 38.6097 144.528 38.9614C143.633 39.3132 142.759 39.7694 141.905 40.3296C141.052 40.8898 140.211 41.5329 139.384 42.2593C138.557 42.9854 137.835 43.7118 137.22 44.438C136.604 45.1643 136.107 45.8758 135.729 46.5728C135.352 47.2696 135.163 47.8658 135.163 48.3608C135.163 48.5562 135.22 48.7295 135.334 48.8794C135.448 49.0291 135.616 49.1039 135.837 49.104C136.521 49.104 137.624 48.5795 139.145 47.5308C140.665 46.482 142.413 45.0525 144.387 43.2417C144.413 43.2156 144.458 43.1659 144.523 43.0942C144.667 42.9185 144.814 42.7914 144.964 42.7134C144.43 42.9283 143.993 43.0356 143.654 43.0356C143.316 43.0356 143.035 42.9609 142.813 42.811C142.592 42.6612 142.481 42.4579 142.481 42.2007C142.481 41.9434 142.595 41.7002 142.823 41.4722C143.051 41.2443 143.211 41.1304 143.303 41.1304C143.393 41.1304 143.439 41.1469 143.439 41.1792L143.391 41.3745C143.391 41.4852 143.466 41.5405 143.615 41.5405C144.013 41.5404 144.557 41.3485 145.247 40.9644C145.937 40.58 146.495 40.1865 146.918 39.7827C147.341 39.3789 147.553 39.0429 147.553 38.7759C147.553 38.5481 147.351 38.4342 146.947 38.4341Z"/>
<path d="M175.058 35.9924C174.166 35.9924 173.424 35.837 172.832 35.5263C172.241 35.2158 171.798 34.8149 171.502 34.3237C171.206 33.8328 171.059 33.3217 171.059 32.7905C171.059 32.2494 171.206 31.7307 171.502 31.2348C171.798 30.7387 172.243 30.3377 172.839 30.0322C173.436 29.7265 174.175 29.5687 175.058 29.5586C175.939 29.5586 176.675 29.7139 177.266 30.0246C177.859 30.3353 178.302 30.7387 178.598 31.2348C178.893 31.7307 179.041 32.2444 179.041 32.7756C179.041 33.3066 178.895 33.8176 178.605 34.3088C178.314 34.7997 177.873 35.2007 177.281 35.5114C176.69 35.822 175.95 35.9824 175.058 35.9924Z"/>
<path d="M66.4756 20.5691C65.995 20.5691 65.662 20.6446 65.4766 20.7947C65.2912 20.945 65.1983 21.1608 65.1982 21.4412C65.1982 21.6417 65.2336 21.8822 65.3037 22.1628L69.1963 34.6394C69.7073 32.8657 70.2687 30.972 70.8799 28.9578C72.0022 25.26 72.6637 23.0196 72.8643 22.238C72.9244 21.9576 72.9541 21.7121 72.9541 21.5017C72.9541 21.2012 72.8593 20.9706 72.6689 20.8103C72.4785 20.65 72.1329 20.5691 71.6318 20.5691V20.1335H75.6455V20.5691C75.0946 20.5691 74.6762 20.6649 74.3906 20.8552C74.105 21.0456 73.8839 21.3234 73.7285 21.6892C73.5732 22.0548 73.4254 22.4984 73.2852 23.0193L69.7676 34.9255C69.116 37.2115 66.0225 47.9602 65.1006 49.363C63.8379 51.2771 62.2341 52.2341 60.29 52.2341C59.4083 52.2341 58.6815 52.0816 58.1104 51.7761C57.5392 51.4704 57.1164 51.0662 56.8408 50.5652C56.5654 50.0641 56.4277 49.5233 56.4277 48.9421C56.4277 48.0704 56.7279 47.3464 57.3291 46.7703C57.9304 46.1941 58.6671 45.906 59.5391 45.906C59.9097 45.906 60.2054 46.0054 60.4258 46.2058C60.6463 46.4062 60.8571 46.6424 61.0576 46.9128C61.1978 47.1131 61.3551 47.3066 61.5303 47.4919C61.7057 47.6773 61.914 47.8297 62.1543 47.95C62.3948 48.0702 62.6904 48.1306 63.041 48.1306C63.5421 48.1306 64.0086 47.9698 64.4395 47.6492C64.8704 47.3285 65.2606 46.9046 65.6113 46.3787C65.9624 45.8509 68.5753 36.3629 68.8359 35.7214H62.5078L58.584 23.2C58.3636 22.5087 58.1879 22.0181 58.0576 21.7273C57.8874 21.3467 57.6548 21.0584 57.3594 20.863C57.0637 20.6677 56.6351 20.5691 56.0742 20.5691V20.1335H66.4756V20.5691ZM90.6924 19.863C91.6344 19.863 92.5218 20.048 93.3535 20.4187C94.1854 20.7895 94.8644 21.3712 95.3906 22.1628C95.9167 22.9545 96.1797 23.9767 96.1797 25.2292V30.3552C96.1797 32.0084 95.924 33.2612 95.4131 34.113C94.7718 35.1854 93.6289 35.7214 91.9854 35.7214H85.3262V45.9617C85.3262 46.3925 85.3885 46.7234 85.5137 46.9539C85.6389 47.1845 85.9577 47.2996 86.4688 47.2996V47.7361C85.8776 47.7361 85.0254 47.9237 83.9131 48.2996C82.801 48.6753 81.7414 49.1661 80.7344 49.7722C79.7274 50.3784 79.0332 51.0375 78.6523 51.7488H78.291V22.9597C78.291 22.4486 78.266 22.0147 78.2158 21.6589C78.1658 21.3034 78.0226 21.0328 77.7871 20.8474C77.5516 20.6622 77.1582 20.5691 76.6074 20.5691V20.1335H85.3262V23.1697C85.7972 22.0675 86.5239 21.2412 87.5059 20.6902C88.4879 20.1389 89.55 19.8631 90.6924 19.863ZM115.345 19.863C116.487 19.863 117.55 20.1389 118.532 20.6902C119.514 21.2412 120.24 22.0677 120.711 23.1697V20.1335H129.43V20.5691C128.879 20.5691 128.486 20.6621 128.25 20.8474C128.015 21.0328 127.871 21.3059 127.821 21.6667C127.771 21.9672 127.746 22.3279 127.746 22.7488V45.9919C127.746 46.4128 127.809 46.7362 127.935 46.9617C128.06 47.187 128.378 47.2995 128.889 47.2996V47.7361C128.297 47.7361 127.443 47.9238 126.326 48.2996C125.209 48.6754 124.146 49.1659 123.139 49.7722C122.132 50.3784 121.443 51.0375 121.072 51.7488H120.711V35.7214H114.067C112.414 35.7214 111.271 35.1854 110.64 34.113C110.119 33.2512 109.858 31.9985 109.858 30.3552V25.2292C109.858 23.9766 110.121 22.9545 110.647 22.1628C111.173 21.3712 111.855 20.7895 112.691 20.4187C113.528 20.0481 114.413 19.8631 115.345 19.863ZM39.1631 13.489C38.7225 13.489 38.4165 13.5543 38.2461 13.6843C38.0756 13.8146 37.9903 14.0004 37.9902 14.241C37.9902 14.4314 38.0256 14.6497 38.0957 14.8953C38.1658 15.1405 38.256 15.4084 38.3662 15.699L47.8564 42.5203C47.9966 42.991 48.1463 43.3947 48.3066 43.7302C48.467 44.066 48.6881 44.3261 48.9688 44.5115C49.2493 44.6968 49.6546 44.7898 50.1855 44.7898V45.2263H39.7686V44.7898C40.2095 44.7898 40.5151 44.7247 40.6855 44.5945C40.8557 44.4643 40.9413 44.2792 40.9414 44.0388C40.9414 43.8484 40.9062 43.6273 40.8359 43.3767L34.9541 27.4246H27.9785C27.167 29.5389 26.7617 31.2627 26.7617 32.5955C26.7618 33.2465 26.8521 33.7673 27.0322 34.158C27.373 34.9096 27.9489 35.2859 28.7607 35.2859V35.7214H21.5V35.2859C22.5823 35.2859 23.5849 34.6494 24.5068 33.3767C25.4287 32.1039 26.3004 30.3097 27.1221 27.9949L30.459 18.7654C30.6294 18.3046 30.7828 17.8388 30.918 17.3679C31.0533 16.897 31.1256 16.4109 31.1357 15.9099C31.1357 15.4691 31.065 15.0656 30.9248 14.7C30.7846 14.3341 30.5392 14.0405 30.1885 13.8201C29.8378 13.5997 29.3469 13.4891 28.7158 13.489V13.0535H39.1631V13.489ZM141.261 20.5691C140.71 20.5691 140.316 20.6676 140.08 20.863C139.845 21.0584 139.702 21.3393 139.651 21.7048C139.601 22.0706 139.577 22.5139 139.577 23.0349V31.8591C139.577 32.4602 139.642 32.9362 139.772 33.2869C139.903 33.6375 140.076 33.8877 140.291 34.0378C140.507 34.1882 140.744 34.2634 141.005 34.2634C141.536 34.2333 141.979 34.0028 142.335 33.572C142.691 33.1411 142.957 32.6199 143.132 32.0085C143.307 31.3975 143.395 30.8415 143.395 30.3406V23.0349C143.395 22.5139 143.369 22.0706 143.319 21.7048C143.269 21.3393 143.127 21.0584 142.892 20.863C142.656 20.6676 142.262 20.5691 141.711 20.5691V20.1335H152.113V20.5691C151.562 20.5691 151.169 20.6677 150.934 20.863C150.698 21.0584 150.555 21.3391 150.505 21.7048C150.455 22.0706 150.43 22.5139 150.43 23.0349V32.821C150.43 33.3419 150.455 33.7855 150.505 34.1511C150.555 34.5169 150.698 34.7976 150.934 34.9929C151.169 35.1882 151.562 35.2859 152.113 35.2859V35.7214H143.395V32.6853C142.924 33.7877 142.197 34.6147 141.215 35.1658C140.233 35.7168 139.171 35.9919 138.028 35.9919C137.096 35.9919 136.212 35.8071 135.375 35.4363C134.538 35.0656 133.857 34.4836 133.331 33.6921C132.805 32.9005 132.542 31.8782 132.542 30.6257V22.9597C132.542 22.4486 132.517 22.0147 132.467 21.6589C132.417 21.3034 132.273 21.0328 132.038 20.8474C131.803 20.6621 131.409 20.5691 130.858 20.5691V20.1335H141.261V20.5691ZM162.485 19.863C164.089 19.863 165.497 20.1186 166.71 20.6296C168.283 21.301 169.069 22.3634 169.069 23.8162C169.069 24.3674 168.899 24.8663 168.559 25.3123C168.218 25.7581 167.789 26.1736 167.273 26.5593C166.757 26.9451 166.218 27.3141 165.657 27.6648C165.156 27.9753 164.688 28.2886 164.252 28.6042C163.816 28.9199 163.463 29.2479 163.192 29.5886C162.922 29.9293 162.786 30.29 162.786 30.6707C162.786 30.9313 162.857 31.1422 162.997 31.3025C163.197 31.5328 163.508 31.7133 163.929 31.8435C164.58 32.064 165.257 32.1746 165.958 32.1746C166.539 32.1746 167.118 32.1189 167.694 32.0085C168.271 31.8984 168.819 31.6779 169.34 31.3474C169.34 32.0687 169.132 32.7176 168.717 33.2937C168.301 33.87 167.757 34.3588 167.086 34.7595C166.415 35.1604 165.672 35.466 164.86 35.6765C164.049 35.887 163.242 35.9919 162.44 35.9919C160.877 35.9919 159.505 35.7615 158.322 35.3005C157.14 34.8396 156.155 34.2208 155.368 33.4441C154.582 32.6676 153.988 31.7958 153.587 30.8289C153.186 29.8619 152.985 28.8674 152.985 27.8455C152.985 26.8435 153.181 25.8658 153.571 24.9138C153.962 23.9618 154.554 23.1078 155.346 22.3513C156.137 21.5947 157.127 20.9907 158.314 20.5398C159.502 20.0889 160.892 19.8631 162.485 19.863ZM108.055 20.5691C107.504 20.5691 107.11 20.6621 106.875 20.8474C106.639 21.0328 106.496 21.3034 106.446 21.6589C106.396 22.0147 106.371 22.4486 106.371 22.9597V32.9802C106.371 33.491 106.396 33.9242 106.446 34.28C106.496 34.6357 106.639 34.9061 106.875 35.0916C107.11 35.277 107.503 35.3699 108.055 35.3699V35.8064H97.6523V35.3699C98.2033 35.3699 98.5966 35.2722 98.832 35.0769C99.0676 34.8813 99.2107 34.601 99.2607 34.2351C99.3109 33.8695 99.3359 33.426 99.3359 32.905V23.0349C99.3359 22.5137 99.3109 22.0697 99.2607 21.7039C99.2107 21.3384 99.0675 21.0583 98.832 20.863C98.5966 20.6677 98.2034 20.5691 97.6523 20.5691V20.1335H108.055V20.5691ZM10.8271 13.489C10.2761 13.489 9.88292 13.5821 9.64746 13.7673C9.41213 13.9527 9.26898 14.2233 9.21875 14.5789C9.16857 14.9346 9.14355 15.3686 9.14355 15.8796V33.196C9.14355 33.5669 9.1584 33.9031 9.18848 34.2039C9.21856 34.5043 9.29663 34.7423 9.42188 34.9177C9.54713 35.0929 9.74984 35.1804 10.0303 35.1804H13.2471C14.5698 35.1804 15.632 34.9649 16.4336 34.5339C17.2353 34.103 17.8199 33.4823 18.1855 32.6707C18.5514 31.8591 18.7344 30.8916 18.7344 29.7693H19.1699V35.7214H0.154297V35.2859C0.705337 35.2859 1.09852 35.1881 1.33398 34.9929C1.56936 34.7976 1.71248 34.5169 1.7627 34.1511C1.81286 33.7855 1.83788 33.3419 1.83789 32.821V15.9548C1.83789 15.4338 1.81284 14.9905 1.7627 14.6248C1.71252 14.2591 1.56941 13.9783 1.33398 13.783C1.09855 13.5874 0.705537 13.489 0.154297 13.489V13.0535H10.8271V13.489ZM47.0693 16.571C47.38 17.2926 47.9319 17.9188 48.7236 18.45C49.5152 18.981 50.3768 19.3945 51.3086 19.6902C52.2406 19.9857 53.0323 20.1335 53.6836 20.1335H54.9912V20.5691H53.6836V32.7302C53.6836 33.2213 53.7041 33.6599 53.7441 34.0457C53.7842 34.4314 53.892 34.7344 54.0674 34.9548C54.2427 35.1753 54.5411 35.2859 54.9619 35.2859V35.7214H50.8574C49.2141 35.7214 48.0719 35.1853 47.4307 34.113C46.9097 33.2612 46.6484 32.0086 46.6484 30.3552L46.6943 20.5691H45.5068V20.1335H46.6943L46.709 16.571H47.0693ZM87.7314 21.5916C87.1903 21.6216 86.7415 21.8548 86.3857 22.2908C86.0301 22.7266 85.7643 23.248 85.5889 23.8542C85.4136 24.4604 85.3262 25.0144 85.3262 25.5154V35.2859H87.2656C87.7766 35.2456 88.1671 35.0979 88.4375 34.8425C88.7082 34.587 88.894 34.2562 88.9941 33.8503C89.0943 33.4445 89.1445 33.0012 89.1445 32.5203V23.9968C89.1445 23.3957 89.0794 22.9198 88.9492 22.5691C88.8188 22.2185 88.6459 21.9675 88.4307 21.8171C88.2152 21.667 87.9819 21.5916 87.7314 21.5916ZM118.321 21.5916C118.061 21.5916 117.823 21.667 117.607 21.8171C117.392 21.9675 117.219 22.2184 117.089 22.5691C116.959 22.9198 116.894 23.3957 116.894 23.9968V32.5203C116.894 33.0012 116.944 33.4445 117.044 33.8503C117.144 34.2562 117.329 34.587 117.6 34.8425C117.87 35.0981 118.261 35.2457 118.772 35.2859H120.711V25.5154C120.711 25.0143 120.623 24.4605 120.448 23.8542C120.273 23.248 120.007 22.7266 119.651 22.2908C119.295 21.8549 118.852 21.6216 118.321 21.5916ZM162.185 20.4343C161.664 20.4344 161.217 20.6371 160.847 21.0427C160.476 21.4485 160.193 21.9849 159.998 22.6511C159.803 23.3175 159.705 24.047 159.705 24.8386C159.705 25.9008 159.9 26.9732 160.291 28.0554C160.682 29.1376 161.298 30.0595 162.14 30.821C161.949 30.3603 161.854 29.8888 161.854 29.408C161.855 28.8769 161.937 28.336 162.103 27.7849C162.268 27.2338 162.456 26.677 162.666 26.116C162.896 25.5049 163.099 24.8838 163.274 24.2527C163.45 23.6214 163.543 22.9848 163.553 22.3435C163.553 22.0127 163.516 21.7043 163.44 21.4187C163.365 21.1331 163.23 20.8981 163.034 20.7126C162.839 20.5272 162.555 20.4343 162.185 20.4343ZM28.2197 26.7322H34.7285L31.5869 17.3826L28.2197 26.7322ZM21.6357 13.0535C21.7455 13.0535 21.8444 13.0635 21.9326 13.0818C21.9346 13.0822 21.9365 13.0824 21.9385 13.0828C21.9715 13.0898 22.0032 13.0976 22.0332 13.1072C22.6492 13.2781 23.1024 13.8424 23.1025 14.5125C23.1025 16.0078 21.6456 19.4954 21.6426 19.5027C21.6297 19.4717 20.1836 16.0027 20.1836 14.5125C20.1837 13.8818 20.5849 13.345 21.1455 13.1414C21.2722 13.0827 21.4359 13.0535 21.6357 13.0535ZM102.854 13.0535C103.735 13.0535 104.472 13.2086 105.063 13.5193C105.655 13.8299 106.098 14.2334 106.394 14.7292C106.689 15.2253 106.837 15.7391 106.837 16.2703C106.837 16.8012 106.692 17.3124 106.401 17.8035C106.111 18.2944 105.669 18.6959 105.078 19.0066C104.487 19.3172 103.745 19.4771 102.854 19.4871C101.962 19.487 101.22 19.3319 100.629 19.0212C100.038 18.7105 99.5944 18.3093 99.2988 17.8181C99.0033 17.3272 98.8555 16.816 98.8555 16.2849C98.8555 15.7439 99.0033 15.2252 99.2988 14.7292C99.5944 14.2334 100.041 13.8326 100.637 13.5271C101.233 13.2215 101.972 13.0634 102.854 13.0535Z"/>
</svg>
