<svg fill="currentColor" viewBox="0 0 512 512" xmlns="http://www.w3.org/2000/svg">
    <g transform="matrix(1.178971,0,0,1.178971,-2.202184,-2.184993)">
        <path d="M402.918,25.022C415.812,35.635 430.943,55.845 434.837,82.446C437.303,99.296 435.33,276.857 436.033,340.499C436.542,386.512 400.468,435.573 340.502,435.964C332.758,436.015 112.256,435.87 97.501,436.033C51.412,436.543 2.418,400.364 2.036,340.502C1.986,332.627 2.13,111.745 1.967,97.501C1.542,60.351 28.426,2.177 100.5,2.034C120.262,1.995 340.349,1.559 347.523,2.201C370.207,4.229 387.13,11.526 402.918,25.022ZM353.553,186.073C361.43,186.84 371.125,188.981 371.411,185.492C371.416,185.433 371.447,129.923 371.394,129.515C370.91,125.791 363.001,130.261 341.674,122.034C289.784,102.016 288.077,52.963 287.816,45.479C287.783,44.524 287.586,43.269 285.518,43.234C280.958,43.156 231.39,42.307 228.508,43.515C227.375,43.99 227.559,44.527 227.549,274.5C227.549,276.759 232.341,314.978 196.337,331.121C157.123,348.702 106.543,306.293 132.753,257.645C137.572,248.701 152.618,233.176 174.504,232.614C188.002,232.268 192.265,236.495 192.294,232.488C192.329,227.857 192.709,176.343 192.207,174.592C191.279,171.356 130.46,165.397 92.07,213.146C25.235,296.274 99.049,410.963 197.414,393.027C244.326,384.474 287.538,341.82 287.954,283.501C288.078,265.985 287.674,162.778 288.179,162.258C290.506,159.862 296.111,170.332 328.404,180.797C338.008,183.909 350.511,185.571 353.553,186.073Z" style="fill-opacity:1;"/>
    </g>
</svg>